<?xml version="1.0" standalone="no"?>
<!DOCTYPE svg PUBLIC "-//W3C//DTD SVG 20010904//EN"
 "http://www.w3.org/TR/2001/REC-SVG-20010904/DTD/svg10.dtd">
<svg version="1.0" xmlns="http://www.w3.org/2000/svg"
 width="736.000000pt" height="552.000000pt" viewBox="0 0 736.000000 552.000000"
 preserveAspectRatio="xMidYMid meet">

<g transform="translate(0.000000,552.000000) scale(0.100000,-0.100000)"
fill="#000000" stroke="none">
<path d="M3430 4586 c-47 -7 -107 -19 -135 -28 -27 -9 -104 -33 -170 -53 -309
-94 -597 -281 -821 -532 -91 -103 -254 -341 -254 -371 0 -5 -13 -28 -29 -53
-41 -62 -88 -182 -121 -313 -44 -175 -47 -208 -50 -516 -1 -194 8 -273 50
-435 37 -142 69 -225 135 -355 260 -508 708 -851 1276 -976 202 -44 611 -43
729 2 44 16 105 32 150 38 91 12 329 117 470 206 378 239 674 630 789 1042 44
155 52 213 58 420 10 369 -37 607 -181 903 -60 121 -151 271 -199 323 -11 12
-17 22 -13 22 4 0 -7 12 -24 26 -17 15 -29 28 -27 31 3 2 -5 15 -17 29 -25 29
-205 188 -260 229 -21 16 -51 41 -66 55 -43 40 -223 137 -346 185 -133 53
-257 90 -374 112 -112 21 -454 26 -570 9z m1141 -563 c12 -13 14 -173 14 -952
l0 -936 -23 -65 c-44 -121 -133 -229 -230 -279 -86 -45 -219 -54 -289 -20
-115 56 -160 189 -115 337 23 70 79 159 130 202 20 18 49 43 64 56 38 35 111
65 172 71 l53 5 6 241 c9 324 9 777 0 777 -37 2 -740 -107 -736 -114 3 -5 -9
-6 -28 -4 -39 6 -189 -14 -234 -32 -16 -6 -43 -10 -60 -10 -16 1 -48 2 -69 1
l-39 -1 6 -652 c3 -435 2 -670 -5 -703 -19 -91 -53 -151 -128 -225 -90 -91
-171 -131 -275 -138 -173 -11 -269 77 -268 248 1 93 27 167 89 249 71 95 220
181 312 181 l37 0 -4 763 c-4 885 -14 803 104 812 39 3 372 50 740 104 369 54
691 99 716 100 32 1 51 -4 60 -16z"/>
</g>
</svg>
